<svg version="1" xmlns="http://www.w3.org/2000/svg" width="346.667" height="346.667" viewBox="0 0 260.000000 260.000000"><path d="M69.8 79.6c-16.9 4-28.6 14.7-34.5 31.5-2.3 6.4-2.6 9-2.6 18.9 0 17.4 4.1 27.7 15.1 38.2 10.4 9.9 21.7 14 38.6 13.9 11.9 0 19.3-1.8 28.8-6.8l6.8-3.5V132H90v4.3c0 2.4.5 4.8 1.2 5.5.7.7 4.4 1.2 9.5 1.2h8.3v21.8l-4.8 2c-15.1 6.5-34.3 4.1-45.5-5.7-8.4-7.4-13.1-23.6-10.9-38.2 2.7-18.6 13.5-29.8 30.9-31.9 9.4-1.2 18.6.4 26.8 4.5 3.9 1.9 7.8 3.5 8.7 3.5 1 0 3-1.8 4.5-4.1l2.7-4-3-2.5c-4.2-3.5-14-8-20.2-9.3-7.1-1.5-21.4-1.3-28.4.5zm101 2.3c-15.6 5-26.3 17.2-30.4 34.8-2.2 9.2-1.4 26.4 1.5 34.7 7 19.9 22.5 30.6 44.2 30.6 29.4 0 48.6-22.4 46.6-54.4-1.4-22.8-12.1-38.7-30.4-45.2-8.7-3-22.8-3.3-31.5-.5zm32.5 5.4c7.8 3.5 11.9 6.9 16.1 13 5 7.3 7.6 15.6 8.3 26.3 1.4 22.9-7 39.9-23.5 47.7-5.6 2.6-8.2 3.2-15.9 3.5-20.2.9-34.1-8-41.4-26.6-3.1-7.9-3.9-27.3-1.4-35.8 4.6-15.7 12.5-24.5 27-29.7 7.6-2.7 23.1-1.9 30.8 1.6z"/></svg>